PathFileType	4	(X/Y/Z)	RBDS04\RBDS04runT35.trc
DataRate	CameraRate	NumFrames	NumMarkers	Units	OrigDataRate	OrigDataStartFrame	OrigNumFrames
150.000000	150.000000	5	33	mm	150.000000	1687	4500
Frame#	Time	L.ASIS			L.Heel.Bottom			L.Heel.Lateral			L.Heel.Top			L.Iliac.Crest			L.MT1			L.MT5			L.PSIS			L.Shank.Bottom.Lateral			L.Shank.Bottom.Medial			L.Shank.Top.Lateral			L.Shank.Top.Medial			L.Thigh.Bottom.Lateral			L.Thigh.Bottom.Medial			L.Thigh.Top.Lateral			L.Thigh.Top.Medial			R.ASIS			R.ASY			R.Heel.Bottom			R.Heel.Lateral			R.Heel.Top			R.Iliac.Crest			R.MT1			R.MT5			R.PSIS			R.Shank.Bottom.Lateral			R.Shank.Bottom.Medial			R.Shank.Top.Lateral			R.Shank.Top.Medial			R.Thigh.Bottom.Lateral			R.Thigh.Bottom.Medial			R.Thigh.Top.Lateral			R.Thigh.Top.Medial			
		X1	Y1	Z1	X2	Y2	Z2	X3	Y3	Z3	X4	Y4	Z4	X5	Y5	Z5	X6	Y6	Z6	X7	Y7	Z7	X8	Y8	Z8	X9	Y9	Z9	X10	Y10	Z10	X11	Y11	Z11	X12	Y12	Z12	X13	Y13	Z13	X14	Y14	Z14	X15	Y15	Z15	X16	Y16	Z16	X17	Y17	Z17	X18	Y18	Z18	X19	Y19	Z19	X20	Y20	Z20	X21	Y21	Z21	X22	Y22	Z22	X23	Y23	Z23	X24	Y24	Z24	X25	Y25	Z25	X26	Y26	Z26	X27	Y27	Z27	X28	Y28	Z28	X29	Y29	Z29	X30	Y30	Z30	X31	Y31	Z31	X32	Y32	Z32	X33	Y33	Z33	

1688	11.24666666666667	2214.168761312735	948.7243158888133	893.6859277276275	1733.954559208732	107.4109355508987	968.2116659767877	1766.505088272034	110.2506192224603	923.710590323964	1761.092176419986	146.0201083433086	964.9765169407465	2166.277192954817	1015.912740475152	854.2978069221996	1933.114935395598	44.92468970576138	992.1683556373541	1893.896095982061	43.56324368012735	895.9837633442478	2059.100707872954	993.6628040318634	964.1441958665862	1867.593082050552	209.0827621304522	904.4464052175521	1831.625372893645	231.9973533892231	931.3312858534405	1902.691277473886	279.329584867688	884.7065194160581	1867.177300640042	306.3769491597653	914.0428515541021	2073.250952997289	597.0644649449396	839.4175138844281	2012.984019695662	604.9792269636713	880.1192374745817	2074.425324049105	706.6017065819329	824.8890481056158	2018.529176146636	714.594692750837	864.5669366608772	2225.34865029517	950.4858116305464	1084.632160804562	2080.207916788518	231.0271887984639	1064.692123737607	1940.552624064421	344.0255510557354	1055.975716958804	1971.009692477298	326.3201758010096	1096.670304119006	1982.788325398713	360.8483791660203	1056.229694814657	2169.480072089098	1010.305489833552	1138.622265543265	2068.581854230542	174.0488357846789	1026.738355954927	2043.15629265612	192.9995284158655	1121.416466396475	2063.036048126195	994.0325816520331	1048.324945697141	2088.026958936109	369.8694324037058	1107.939439469417	2068.894791173599	402.3280632205072	1068.790224669198	2148.595730365037	423.1413666966351	1119.597442066094	2129.751543657592	453.4138111840603	1079.285744816095	2313.026887996801	624.7085074136369	1150.012556983238	2265.165892542971	592.6197737695537	1104.380532368235	2241.350493734051	706.6705942622362	1166.522348501012	2192.251960166812	672.4129793825892	1128.048154836757	
1689	11.25333333333333	2216.605293176036	952.2470858554459	892.9523231738143	1719.319232722854	121.2965731342134	967.773764017067	1751.894645489356	121.4086920267258	923.1531632722914	1748.958953871161	157.7878385868177	964.1360053330918	2170.379722726386	1021.085584456261	854.3385138345593	1912.320481674043	44.79268179751361	991.7472555800717	1873.236715991654	45.34380376218042	895.4890815369415	2061.59941840153	997.9878431944389	962.8628118829723	1853.804689224162	217.4426513118063	903.5014233995372	1818.252897554341	239.9852243743572	931.2593889451709	1888.8535677609	287.9469943502818	884.5055897947885	1853.744416089282	314.5914947125009	914.6592598448943	2065.2817093498	603.2749392686953	840.5594515465177	2005.478557178631	613.3964120917782	881.4702237168755	2070.047988413584	712.6347631853283	825.5877462156996	2014.702577085717	722.715002199018	865.536876556876	2226.852331088254	956.1690880088597	1083.608444347559	2102.891850637221	222.4984465545488	1063.962835500795	1956.521485648976	326.4586572851689	1054.344781241524	1987.73906474792	310.5632032958767	1095.2484297161	1997.679249610912	345.9593846558956	1055.060837680878	2170.736506118478	1016.272605253264	1137.722176600976	2095.289872256428	165.0307744697538	1025.934148045843	2067.999313887072	182.1455320311141	1120.302797815161	2064.960048859574	999.0094182969896	1047.369946036717	2102.219825030103	361.4614042286797	1107.086888070523	2081.351030205504	392.7817390521861	1067.827984406801	2159.457486502668	418.2708749458911	1119.042411363456	2139.008148884424	447.4299552309457	1078.642311738888	2317.800860126313	632.4154280315253	1149.749888823361	2269.660735438626	599.5005287889801	1105.023986174675	2245.306774623272	713.6676148008099	1166.555954987918	2196.316239806831	678.8076764080806	1128.66770560554	
1690	11.26	2219.194189000067	955.7711290435745	892.3864571263889	1706.416820329573	135.988983209064	967.3260830038899	1738.795972790924	133.2990494780285	922.5676536237415	1738.549967404828	170.0723589393843	963.285845522836	2174.27511592313	1026.043454322866	854.4475301555356	1892.244588506449	45.06288460068013	991.209533976479	1853.27721546783	47.70048405576807	894.9244809428145	2064.214269103442	1002.305415187862	961.6879841402193	1841.32369445744	225.9373523346665	902.425521391209	1806.162358926493	248.0498477559686	931.0652110127554	1876.247984721319	296.7312692340745	884.1826617582086	1841.522819161023	322.9149429874906	915.1555542395306	2057.975631611301	609.7746218268807	841.6131837668822	1998.743669111409	621.9790178062077	882.8053463668321	2066.16241976942	718.8625908784182	826.2531073654524	2011.456284180729	730.8983260096314	866.5393508977545	2228.333217795934	961.7240439592493	1082.725585505707	2125.992142439664	214.0070718038375	1063.287230672366	1973.35750749381	308.5106268618487	1052.592971185725	2005.23173590742	294.4197569890796	1093.758908055842	2013.282888180914	330.6045796735526	1053.830920719179	2172.063350340479	1022.250009433187	1136.840366137339	2122.48866638217	156.3067079323729	1025.218052184989	2093.443945238713	171.3688411605868	1119.192116809	2066.996783772006	1003.904795551052	1046.500078129307	2116.672596690358	352.65014385532	1106.218980982062	2094.148816239931	382.7176874040121	1066.806972487954	2170.316667853707	412.8602564191992	1118.489997877397	2148.352777914302	440.7691386818886	1077.948222019627	2321.928990767027	639.4604396081254	1149.376100988977	2273.361664872341	605.7932029215583	1105.684621021687	2248.820996788306	720.2045135273681	1166.496748530797	2199.846771571959	684.8477614176381	1129.236064465335	
1691	11.26666666666667	2221.876023324876	959.2373792042673	891.9935758939437	1695.191606203485	151.3058208429592	966.8867095446658	1727.121317408456	145.7909979376033	921.9729620104742	1729.737348241801	182.7271233008651	962.4303912655632	2177.954815272255	1030.759805942192	854.6050028931472	1872.912423468199	45.88785841028541	990.6036884448979	1834.017687262775	50.73308725017271	894.3620194590497	2066.88960455658	1006.567490895925	960.6180495369579	1830.065734605519	234.4709022553864	901.2584183897079	1795.268417617982	256.1350994056937	930.7553458760079	1864.851407672683	305.5516642471418	883.7556121654824	1830.48898055611	331.2583495263106	915.5175545427879	2051.368470029029	616.425985074034	842.5542945393175	1992.789476476948	630.5670208261495	884.0867532348386	2062.775306198922	725.1696288784241	826.8627658272611	2008.76499716165	739.0066770386516	867.5402746977245	2229.753317873376	967.0434648493324	1081.994181775505	2149.47976194791	205.5814547927771	1062.697492616873	1991.098820775859	290.2588762672465	1050.777088428975	2023.510917488336	277.9577660668632	1092.243522922395	2029.626762131365	314.8526594551536	1052.577248874375	2173.425062902045	1028.122502616654	1135.986115975737	2150.11567791145	147.9212253620304	1024.606154231091	2119.44019208202	160.713401301986	1118.111786825976	2069.097406035355	1008.642484948116	1045.705053659627	2131.397779514377	343.4473735876763	1105.38308490838	2107.313595289401	372.15334991084	1065.775508426913	2181.198821785063	406.8861964159722	1117.974810505384	2157.825501013014	433.4185888891776	1077.241842668271	2325.349398535482	645.7384274591918	1148.883760993115	2276.226674214664	611.3911320174308	1106.32837250721	2251.828059720407	726.1768621475527	1166.308310333723	2202.777239203651	690.416837982369	1129.699887747057	
1692	11.27333333333333	2224.586800749027	962.5982966823696	891.767254461921	1685.505549464144	167.0592343244575	966.4756079897778	1716.717120649751	158.7466961492159	921.3947180907527	1722.316157011124	195.6151796891276	961.5775807839055	2181.423513719798	1035.219769554656	854.793997755718	1854.320324749548	47.42505729596117	989.996684198042	1815.435206878834	54.53130501529892	893.8894506440674	2069.56873864622	1010.728418809057	959.6480472642279	1819.904163968251	242.9767663725864	900.0514735606774	1785.446852562109	264.2202816842956	930.3477116402991	1854.609035319688	314.3010529884976	883.2532917198805	1820.591899436633	339.5628060765856	915.7426837458424	2045.500365180768	623.080136814884	843.3680764712645	1987.624760119753	638.9936065281299	885.2790432230172	2059.89666213999	731.4290997278061	827.3969854877695	2006.600990443159	746.8973037375406	868.4996653398383	2231.090294137006	972.0319173229992	1081.415175802718	2173.314577185881	197.2667966142444	1062.217571350756	2009.772040146828	271.7818840356294	1048.955683215868	2042.589950068346	261.2580916797551	1090.745326125157	2046.726015755679	298.7766528791946	1051.336823417643	2174.793127932027	1033.770138547491	1135.174201550018	2178.097268473299	139.9301560865085	1024.106797668665	2145.928303103172	150.2498437653147	1117.090010289929	2071.211223871936	1013.152971823414	1044.973856902405	2146.398051896442	333.8779997162563	1104.62427171152	2120.857987348226	361.1177228115347	1064.782856901681	2192.119273606483	400.3387675857746	1117.532753631672	2167.451986899925	425.3806888583985	1076.566284074954	2327.994843391896	651.1582519884944	1148.275721133052	2278.216937919081	616.2123849345405	1106.914863512924	2254.264587084727	731.4943780708785	1165.96352507852	2205.046163249348	695.422095589772	1130.007437547223	
